<svg width="195" height="63" viewBox="0 0 195 63" fill="none" xmlns="http://www.w3.org/2000/svg">
<path d="M53.696 17.44C53.84 16.832 54.064 16.32 54.368 15.904C54.672 15.488 55.04 15.152 55.472 14.896C55.92 14.64 56.416 14.464 56.96 14.368C57.504 14.256 58.08 14.2 58.688 14.2H64.592C64.592 14.296 64.552 14.608 64.472 15.136C64.392 15.664 64.296 16.296 64.184 17.032C64.072 17.752 63.952 18.52 63.824 19.336C63.696 20.152 63.584 20.896 63.488 21.568C63.328 21.152 63.136 20.704 62.912 20.224C62.688 19.744 62.44 19.264 62.168 18.784C61.896 18.304 61.608 17.84 61.304 17.392C61 16.944 60.688 16.552 60.368 16.216C60.064 15.864 59.752 15.576 59.432 15.352C59.128 15.128 58.84 15.008 58.568 14.992H58.256C57.616 14.992 57.096 15.128 56.696 15.4C56.296 15.656 56.16 16.056 56.288 16.6C56.4 17.032 56.728 17.528 57.272 18.088C57.816 18.648 58.44 19.216 59.144 19.792C59.864 20.368 60.592 20.936 61.328 21.496C62.08 22.04 62.704 22.536 63.2 22.984C63.68 23.4 64.072 23.896 64.376 24.472C64.696 25.032 64.904 25.608 65 26.2C65.112 26.792 65.096 27.376 64.952 27.952C64.808 28.528 64.512 29.04 64.064 29.488C63.632 29.936 63.032 30.304 62.264 30.592C61.496 30.864 60.536 31 59.384 31H54.056V25.216C54.328 25.648 54.664 26.152 55.064 26.728C55.464 27.288 55.912 27.832 56.408 28.36C56.904 28.872 57.432 29.304 57.992 29.656C58.552 30.008 59.12 30.184 59.696 30.184C60.192 30.184 60.56 30.08 60.8 29.872C61.056 29.648 61.128 29.344 61.016 28.96C60.92 28.576 60.616 28.12 60.104 27.592C59.592 27.064 58.816 26.488 57.776 25.864C56.672 25.192 55.816 24.48 55.208 23.728C54.616 22.96 54.192 22.208 53.936 21.472C53.68 20.72 53.552 20 53.552 19.312C53.552 18.608 53.6 17.984 53.696 17.44ZM71.3203 17.464V27.328C71.3203 28.016 71.4483 28.528 71.7043 28.864C71.9763 29.2 72.3523 29.368 72.8323 29.368C73.1843 29.368 73.4803 29.256 73.7203 29.032C73.9603 28.792 74.0803 28.488 74.0803 28.12V19.24C74.0803 18.808 74.0163 18.44 73.8883 18.136C73.7763 17.816 73.6243 17.592 73.4323 17.464H78.6163V29.224C78.6163 29.656 78.6723 30.032 78.7843 30.352C78.9123 30.656 79.0723 30.872 79.2643 31H74.3203L74.0803 29.392C73.9203 29.632 73.7043 29.864 73.4323 30.088C73.1763 30.312 72.8963 30.512 72.5923 30.688C72.2883 30.848 71.9763 30.976 71.6562 31.072C71.3523 31.184 71.0643 31.24 70.7923 31.24C69.4643 31.24 68.4643 30.928 67.7923 30.304C67.1203 29.664 66.7843 28.672 66.7843 27.328V19.24C66.7843 18.808 66.7203 18.44 66.5923 18.136C66.4803 17.816 66.3283 17.592 66.1363 17.464H71.3203ZM80.1753 17.464H85.9833C85.7913 17.656 85.6313 17.88 85.5033 18.136C85.3913 18.392 85.3433 18.632 85.3593 18.856C85.6313 18.808 85.9033 18.712 86.1753 18.568C86.4633 18.424 86.7433 18.28 87.0153 18.136C87.3033 17.976 87.5833 17.832 87.8553 17.704C88.1273 17.576 88.3913 17.496 88.6473 17.464C88.7753 17.432 88.9033 17.416 89.0313 17.416C89.1593 17.416 89.2873 17.416 89.4153 17.416C90.2793 17.416 90.9913 17.616 91.5513 18.016C92.1273 18.4 92.4553 18.944 92.5353 19.648C92.6953 19.472 92.8953 19.256 93.1353 19C93.3913 18.744 93.6713 18.504 93.9753 18.28C94.2953 18.056 94.6233 17.864 94.9593 17.704C95.2953 17.544 95.6233 17.464 95.9433 17.464C97.2713 17.464 98.2713 17.784 98.9433 18.424C99.6153 19.048 99.9513 20.032 99.9513 21.376V29.224C99.9513 29.656 100.007 30.032 100.119 30.352C100.247 30.656 100.407 30.872 100.599 31H94.7673C94.9593 30.872 95.1113 30.656 95.2233 30.352C95.3513 30.032 95.4153 29.656 95.4153 29.224V21.376C95.4153 20.752 95.2873 20.272 95.0313 19.936C94.7913 19.584 94.4953 19.408 94.1433 19.408C94.1113 19.408 94.0793 19.416 94.0473 19.432C94.0313 19.432 94.0073 19.432 93.9753 19.432C93.7513 19.432 93.5513 19.488 93.3753 19.6C93.2153 19.696 93.0793 19.816 92.9673 19.96C92.8713 20.088 92.7913 20.216 92.7273 20.344C92.6793 20.456 92.6553 20.536 92.6553 20.584V29.224C92.6553 29.656 92.7113 30.032 92.8233 30.352C92.9513 30.656 93.1113 30.872 93.3033 31H87.4713C87.6633 30.872 87.8153 30.656 87.9273 30.352C88.0553 30.032 88.1193 29.656 88.1193 29.224V21.376C88.1193 20.688 88.0153 20.168 87.8073 19.816C87.5993 19.448 87.3193 19.264 86.9673 19.264C86.8233 19.264 86.6713 19.272 86.5113 19.288C86.3673 19.32 86.1913 19.352 85.9833 19.384C85.7913 19.416 85.5833 19.472 85.3593 19.552V29.224C85.3593 29.656 85.4153 30.032 85.5273 30.352C85.6553 30.656 85.8153 30.872 86.0073 31H80.1753C80.3673 30.872 80.5193 30.656 80.6313 30.352C80.7593 30.032 80.8233 29.656 80.8233 29.224V19.48C80.8233 19.048 80.7593 18.64 80.6313 18.256C80.5193 17.856 80.3673 17.592 80.1753 17.464ZM107.58 22.696C106.572 23.32 105.82 23.912 105.324 24.472C104.844 25.016 104.604 25.64 104.604 26.344C104.604 26.76 104.628 27.152 104.676 27.52C104.724 27.888 104.804 28.208 104.916 28.48C105.044 28.752 105.22 28.968 105.444 29.128C105.668 29.272 105.956 29.344 106.308 29.344C106.676 29.344 106.98 29.24 107.22 29.032C107.46 28.808 107.58 28.504 107.58 28.12V22.696ZM107.58 29.392C107.228 29.92 106.796 30.36 106.284 30.712C105.772 31.064 105.284 31.24 104.82 31.24C104.052 31.24 103.42 31.128 102.924 30.904C102.428 30.664 102.044 30.36 101.772 29.992C101.5 29.624 101.316 29.216 101.22 28.768C101.14 28.32 101.108 27.888 101.124 27.472C101.14 27.04 101.196 26.648 101.292 26.296C101.404 25.944 101.508 25.688 101.604 25.528C101.876 25.096 102.18 24.768 102.516 24.544C102.868 24.304 103.236 24.112 103.62 23.968C104.004 23.824 104.388 23.704 104.772 23.608C105.172 23.496 105.548 23.36 105.9 23.2C106.268 23.04 106.596 22.832 106.884 22.576C107.172 22.32 107.404 21.96 107.58 21.496V20.896C107.58 20.672 107.564 20.4 107.532 20.08C107.516 19.744 107.46 19.424 107.364 19.12C107.268 18.816 107.124 18.552 106.932 18.328C106.756 18.104 106.516 17.992 106.212 17.992C106.004 17.992 105.836 18.096 105.708 18.304C105.58 18.512 105.476 18.776 105.396 19.096C105.316 19.416 105.252 19.768 105.204 20.152C105.172 20.536 105.148 20.904 105.132 21.256C105.132 21.592 105.132 21.888 105.132 22.144C105.132 22.4 105.124 22.568 105.108 22.648C104.436 22.376 103.828 22.128 103.284 21.904C103.06 21.808 102.836 21.72 102.612 21.64C102.388 21.56 102.188 21.488 102.012 21.424C101.836 21.344 101.684 21.288 101.556 21.256C101.444 21.208 101.38 21.184 101.364 21.184C101.572 20.816 101.812 20.416 102.084 19.984C102.372 19.536 102.724 19.128 103.14 18.76C103.556 18.392 104.044 18.088 104.604 17.848C105.164 17.592 105.828 17.464 106.596 17.464C107.428 17.464 108.18 17.536 108.852 17.68C109.54 17.824 110.124 18.056 110.604 18.376C111.084 18.696 111.452 19.112 111.708 19.624C111.98 20.136 112.116 20.76 112.116 21.496V29.224C112.116 29.656 112.172 30.032 112.284 30.352C112.412 30.656 112.572 30.872 112.764 31H106.932L107.58 29.392ZM113.621 31C113.717 30.936 113.805 30.808 113.885 30.616C113.965 30.408 114.029 30.184 114.077 29.944C114.141 29.688 114.189 29.424 114.221 29.152C114.253 28.864 114.269 28.616 114.269 28.408V19.48C114.269 19.048 114.205 18.632 114.077 18.232C113.965 17.832 113.813 17.568 113.621 17.44H119.333C119.077 17.552 118.917 17.704 118.853 17.896C118.789 18.072 118.765 18.288 118.781 18.544L118.805 18.952C119.189 18.952 119.541 18.88 119.861 18.736C120.181 18.576 120.477 18.408 120.749 18.232C121.037 18.04 121.309 17.872 121.565 17.728C121.837 17.568 122.101 17.48 122.357 17.464H122.717C123.421 17.464 123.989 17.552 124.421 17.728C124.869 17.888 125.213 18.136 125.453 18.472C125.709 18.792 125.877 19.2 125.957 19.696C126.053 20.176 126.101 20.736 126.101 21.376V28.408C126.101 28.616 126.117 28.864 126.149 29.152C126.181 29.424 126.221 29.688 126.269 29.944C126.333 30.184 126.405 30.408 126.485 30.616C126.565 30.808 126.653 30.936 126.749 31H120.917C121.013 30.936 121.101 30.808 121.181 30.616C121.261 30.408 121.325 30.184 121.373 29.944C121.437 29.688 121.485 29.424 121.517 29.152C121.549 28.864 121.565 28.616 121.565 28.408V21.376C121.565 20.608 121.429 20.096 121.157 19.84C120.885 19.584 120.397 19.456 119.693 19.456C119.565 19.456 119.421 19.456 119.261 19.456C119.117 19.456 118.957 19.464 118.781 19.48L118.805 28.408C118.805 28.616 118.821 28.864 118.853 29.152C118.885 29.424 118.925 29.688 118.973 29.944C119.037 30.184 119.109 30.408 119.189 30.616C119.269 30.808 119.357 30.936 119.453 31H113.621ZM125.117 15.616H128.069C128.341 15.52 128.645 15.352 128.981 15.112C129.333 14.872 129.701 14.592 130.085 14.272C130.469 13.936 130.853 13.568 131.237 13.168C131.637 12.768 132.021 12.368 132.389 11.968H132.629V15.472H134.957V16.072H132.629V27.496C132.629 28.216 132.765 28.736 133.037 29.056C133.325 29.376 133.781 29.536 134.405 29.536C134.773 29.536 135.029 29.44 135.173 29.248L135.389 29.392C135.229 29.632 135.013 29.864 134.741 30.088C134.485 30.312 134.205 30.512 133.901 30.688C133.597 30.848 133.285 30.976 132.965 31.072C132.661 31.184 132.373 31.24 132.101 31.24C130.773 31.24 129.773 30.928 129.101 30.304C128.429 29.664 128.093 28.672 128.093 27.328V16.072H124.949C123.973 16.12 122.933 16.176 121.829 16.24C120.741 16.288 119.677 16.352 118.637 16.432C117.597 16.512 116.621 16.608 115.709 16.72C114.797 16.816 114.029 16.944 113.405 17.104C113.101 17.184 112.925 17.232 112.877 17.248C112.813 17.248 112.829 17.24 112.925 17.224C113.021 17.192 113.165 17.152 113.357 17.104C113.549 17.056 113.733 17.008 113.909 16.96C114.101 16.912 114.253 16.872 114.365 16.84C114.477 16.792 114.509 16.768 114.461 16.768C114.237 16.768 114.101 16.704 114.053 16.576C114.005 16.432 114.053 16.184 114.197 15.832C114.341 15.464 114.581 14.976 114.917 14.368C115.253 13.76 115.693 12.992 116.237 12.064C116.813 12.432 117.469 12.824 118.205 13.24C118.957 13.64 119.725 14.008 120.509 14.344C121.309 14.68 122.101 14.968 122.885 15.208C123.685 15.448 124.429 15.584 125.117 15.616ZM134.761 31C134.953 30.872 135.105 30.656 135.217 30.352C135.345 30.032 135.409 29.656 135.409 29.224V15.976C135.409 15.544 135.345 15.176 135.217 14.872C135.105 14.552 134.953 14.328 134.761 14.2H140.665C140.521 14.296 140.401 14.424 140.305 14.584C140.209 14.728 140.137 14.888 140.089 15.064C140.041 15.24 140.001 15.416 139.969 15.592C139.953 15.752 139.945 15.888 139.945 16V19.312C140.105 19.072 140.313 18.84 140.569 18.616C140.841 18.392 141.129 18.2 141.433 18.04C141.737 17.864 142.049 17.728 142.369 17.632C142.689 17.52 142.977 17.464 143.233 17.464C144.561 17.464 145.561 17.784 146.233 18.424C146.905 19.048 147.241 20.032 147.241 21.376V29.224C147.241 29.656 147.297 30.032 147.409 30.352C147.537 30.656 147.697 30.872 147.889 31H142.057C142.249 30.872 142.401 30.656 142.513 30.352C142.641 30.032 142.705 29.656 142.705 29.224V21.376C142.705 20.688 142.569 20.176 142.297 19.84C142.041 19.504 141.673 19.336 141.193 19.336C140.841 19.336 140.545 19.456 140.305 19.696C140.065 19.92 139.945 20.216 139.945 20.584V29.224C139.945 29.656 140.001 30.032 140.113 30.352C140.241 30.656 140.401 30.872 140.593 31H134.761ZM54.416 47.232V37.104C54.416 36.912 54.4 36.688 54.368 36.432C54.352 36.16 54.304 35.888 54.224 35.616C54.16 35.344 54.056 35.088 53.912 34.848C53.784 34.592 53.6 34.376 53.36 34.2H59.72L63.032 43.752L66.032 34.2H71.6C71.36 34.376 71.168 34.592 71.024 34.848C70.896 35.088 70.792 35.344 70.712 35.616C70.648 35.888 70.6 36.16 70.568 36.432C70.552 36.688 70.544 36.912 70.544 37.104V48.168C70.544 48.36 70.552 48.592 70.568 48.864C70.6 49.12 70.648 49.384 70.712 49.656C70.792 49.928 70.896 50.184 71.024 50.424C71.168 50.664 71.36 50.856 71.6 51H64.976C65.216 50.856 65.4 50.664 65.528 50.424C65.672 50.184 65.776 49.928 65.84 49.656C65.92 49.384 65.968 49.12 65.984 48.864C66.016 48.592 66.032 48.36 66.032 48.168V36.504L61.52 51H59.624C59.656 51 59.736 50.96 59.864 50.88C60.008 50.784 60.152 50.68 60.296 50.568C60.44 50.456 60.568 50.344 60.68 50.232C60.792 50.12 60.848 50.048 60.848 50.016L55.16 36.288V44.712C55.16 44.84 55.192 45.072 55.256 45.408C55.336 45.744 55.44 46.128 55.568 46.56C55.712 46.992 55.872 47.448 56.048 47.928C56.24 48.408 56.456 48.864 56.696 49.296C56.936 49.712 57.2 50.08 57.488 50.4C57.776 50.704 58.08 50.904 58.4 51H53.36C53.6 50.856 53.784 50.616 53.912 50.28C54.056 49.928 54.16 49.56 54.224 49.176C54.304 48.792 54.352 48.424 54.368 48.072C54.4 47.704 54.416 47.424 54.416 47.232ZM78.6815 42.696C77.6735 43.32 76.9215 43.912 76.4255 44.472C75.9455 45.016 75.7055 45.64 75.7055 46.344C75.7055 46.76 75.7295 47.152 75.7775 47.52C75.8255 47.888 75.9055 48.208 76.0175 48.48C76.1455 48.752 76.3215 48.968 76.5455 49.128C76.7695 49.272 77.0575 49.344 77.4095 49.344C77.7775 49.344 78.0815 49.24 78.3215 49.032C78.5615 48.808 78.6815 48.504 78.6815 48.12V42.696ZM78.6815 49.392C78.3295 49.92 77.8975 50.36 77.3855 50.712C76.8735 51.064 76.3855 51.24 75.9215 51.24C75.1535 51.24 74.5215 51.128 74.0255 50.904C73.5295 50.664 73.1455 50.36 72.8735 49.992C72.6015 49.624 72.4175 49.216 72.3215 48.768C72.2415 48.32 72.2095 47.888 72.2255 47.472C72.2415 47.04 72.2975 46.648 72.3935 46.296C72.5055 45.944 72.6095 45.688 72.7055 45.528C72.9775 45.096 73.2815 44.768 73.6175 44.544C73.9695 44.304 74.3375 44.112 74.7215 43.968C75.1055 43.824 75.4895 43.704 75.8735 43.608C76.2735 43.496 76.6495 43.36 77.0015 43.2C77.3695 43.04 77.6975 42.832 77.9855 42.576C78.2735 42.32 78.5055 41.96 78.6815 41.496V40.896C78.6815 40.672 78.6655 40.4 78.6335 40.08C78.6175 39.744 78.5615 39.424 78.4655 39.12C78.3695 38.816 78.2255 38.552 78.0335 38.328C77.8575 38.104 77.6175 37.992 77.3135 37.992C77.1055 37.992 76.9375 38.096 76.8095 38.304C76.6815 38.512 76.5775 38.776 76.4975 39.096C76.4175 39.416 76.3535 39.768 76.3055 40.152C76.2735 40.536 76.2495 40.904 76.2335 41.256C76.2335 41.592 76.2335 41.888 76.2335 42.144C76.2335 42.4 76.2255 42.568 76.2095 42.648C75.5375 42.376 74.9295 42.128 74.3855 41.904C74.1615 41.808 73.9375 41.72 73.7135 41.64C73.4895 41.56 73.2895 41.488 73.1135 41.424C72.9375 41.344 72.7855 41.288 72.6575 41.256C72.5455 41.208 72.4815 41.184 72.4655 41.184C72.6735 40.816 72.9135 40.416 73.1855 39.984C73.4735 39.536 73.8255 39.128 74.2415 38.76C74.6575 38.392 75.1455 38.088 75.7055 37.848C76.2655 37.592 76.9295 37.464 77.6975 37.464C78.5295 37.464 79.2815 37.536 79.9535 37.68C80.6415 37.824 81.2255 38.056 81.7055 38.376C82.1855 38.696 82.5535 39.112 82.8095 39.624C83.0815 40.136 83.2175 40.76 83.2175 41.496V49.224C83.2175 49.656 83.2735 50.032 83.3855 50.352C83.5135 50.656 83.6735 50.872 83.8655 51H78.0335L78.6815 49.392ZM84.7222 51C84.8182 50.936 84.9062 50.808 84.9862 50.616C85.0662 50.408 85.1302 50.184 85.1782 49.944C85.2422 49.688 85.2902 49.424 85.3222 49.152C85.3542 48.864 85.3702 48.616 85.3702 48.408V39.48C85.3702 39.048 85.3062 38.632 85.1782 38.232C85.0662 37.832 84.9142 37.568 84.7222 37.44H90.4342C90.1782 37.552 90.0182 37.704 89.9542 37.896C89.8902 38.072 89.8662 38.288 89.8822 38.544L89.9062 38.952C90.2902 38.952 90.6422 38.88 90.9622 38.736C91.2822 38.576 91.5782 38.408 91.8502 38.232C92.1382 38.04 92.4102 37.872 92.6662 37.728C92.9382 37.568 93.2022 37.48 93.4582 37.464H93.8182C94.5222 37.464 95.0902 37.552 95.5222 37.728C95.9702 37.888 96.3142 38.136 96.5542 38.472C96.8102 38.792 96.9782 39.2 97.0582 39.696C97.1542 40.176 97.2022 40.736 97.2022 41.376V48.408C97.2022 48.616 97.2182 48.864 97.2502 49.152C97.2822 49.424 97.3222 49.688 97.3702 49.944C97.4342 50.184 97.5062 50.408 97.5862 50.616C97.6662 50.808 97.7542 50.936 97.8502 51H92.0182C92.1142 50.936 92.2022 50.808 92.2822 50.616C92.3622 50.408 92.4262 50.184 92.4742 49.944C92.5382 49.688 92.5862 49.424 92.6182 49.152C92.6502 48.864 92.6662 48.616 92.6662 48.408V41.376C92.6662 40.608 92.5302 40.096 92.2582 39.84C91.9862 39.584 91.4982 39.456 90.7942 39.456C90.6662 39.456 90.5222 39.456 90.3622 39.456C90.2182 39.456 90.0582 39.464 89.8822 39.48L89.9062 48.408C89.9062 48.616 89.9222 48.864 89.9542 49.152C89.9862 49.424 90.0262 49.688 90.0742 49.944C90.1382 50.184 90.2102 50.408 90.2902 50.616C90.3702 50.808 90.4582 50.936 90.5542 51H84.7222ZM98.4303 44.448C98.4303 43.392 98.5743 42.44 98.8623 41.592C99.1503 40.728 99.5583 39.992 100.086 39.384C100.614 38.776 101.246 38.304 101.982 37.968C102.718 37.632 103.542 37.464 104.454 37.464C105.366 37.464 106.19 37.632 106.926 37.968C107.662 38.304 108.294 38.776 108.822 39.384C109.35 39.992 109.758 40.728 110.046 41.592C110.334 42.44 110.478 43.392 110.478 44.448C110.478 45.472 110.334 46.4 110.046 47.232C109.758 48.064 109.35 48.776 108.822 49.368C108.294 49.96 107.662 50.424 106.926 50.76C106.19 51.08 105.366 51.24 104.454 51.24C103.542 51.24 102.718 51.08 101.982 50.76C101.246 50.424 100.614 49.96 100.086 49.368C99.5583 48.776 99.1503 48.064 98.8623 47.232C98.5743 46.4 98.4303 45.472 98.4303 44.448ZM103.182 44.448C103.406 45.648 103.606 46.648 103.782 47.448C103.974 48.248 104.166 48.896 104.358 49.392C104.55 49.872 104.742 50.216 104.934 50.424C105.142 50.616 105.366 50.712 105.606 50.712C105.846 50.712 106.03 50.616 106.158 50.424C106.286 50.216 106.35 49.872 106.35 49.392C106.366 48.896 106.318 48.248 106.206 47.448C106.11 46.648 105.95 45.648 105.726 44.448C105.502 43.232 105.294 42.216 105.102 41.4C104.91 40.568 104.718 39.904 104.526 39.408C104.334 38.896 104.134 38.536 103.926 38.328C103.734 38.104 103.518 37.992 103.278 37.992C103.038 37.992 102.854 38.104 102.726 38.328C102.614 38.536 102.55 38.896 102.534 39.408C102.534 39.904 102.582 40.568 102.678 41.4C102.79 42.216 102.958 43.232 103.182 44.448ZM111.066 51C111.258 50.872 111.41 50.656 111.522 50.352C111.65 50.032 111.714 49.656 111.714 49.224V35.976C111.714 35.544 111.65 35.176 111.522 34.872C111.41 34.552 111.258 34.328 111.066 34.2H116.97C116.826 34.296 116.706 34.424 116.61 34.584C116.514 34.728 116.442 34.888 116.394 35.064C116.346 35.24 116.306 35.416 116.274 35.592C116.258 35.752 116.25 35.888 116.25 36V39.312C116.41 39.072 116.618 38.84 116.874 38.616C117.146 38.392 117.434 38.2 117.738 38.04C118.042 37.864 118.354 37.728 118.674 37.632C118.994 37.52 119.282 37.464 119.538 37.464C120.866 37.464 121.866 37.784 122.538 38.424C123.21 39.048 123.546 40.032 123.546 41.376V49.224C123.546 49.656 123.602 50.032 123.714 50.352C123.842 50.656 124.002 50.872 124.194 51H118.362C118.554 50.872 118.706 50.656 118.818 50.352C118.946 50.032 119.01 49.656 119.01 49.224V41.376C119.01 40.688 118.874 40.176 118.602 39.84C118.346 39.504 117.978 39.336 117.498 39.336C117.146 39.336 116.85 39.456 116.61 39.696C116.37 39.92 116.25 40.216 116.25 40.584V49.224C116.25 49.656 116.306 50.032 116.418 50.352C116.546 50.656 116.706 50.872 116.898 51H111.066ZM131.322 42.696C130.314 43.32 129.562 43.912 129.066 44.472C128.586 45.016 128.346 45.64 128.346 46.344C128.346 46.76 128.37 47.152 128.418 47.52C128.466 47.888 128.546 48.208 128.658 48.48C128.786 48.752 128.962 48.968 129.186 49.128C129.41 49.272 129.698 49.344 130.05 49.344C130.418 49.344 130.722 49.24 130.962 49.032C131.202 48.808 131.322 48.504 131.322 48.12V42.696ZM131.322 49.392C130.97 49.92 130.538 50.36 130.026 50.712C129.514 51.064 129.026 51.24 128.562 51.24C127.794 51.24 127.162 51.128 126.666 50.904C126.17 50.664 125.786 50.36 125.514 49.992C125.242 49.624 125.058 49.216 124.962 48.768C124.882 48.32 124.85 47.888 124.866 47.472C124.882 47.04 124.938 46.648 125.034 46.296C125.146 45.944 125.25 45.688 125.346 45.528C125.618 45.096 125.922 44.768 126.258 44.544C126.61 44.304 126.978 44.112 127.362 43.968C127.746 43.824 128.13 43.704 128.514 43.608C128.914 43.496 129.29 43.36 129.642 43.2C130.01 43.04 130.338 42.832 130.626 42.576C130.914 42.32 131.146 41.96 131.322 41.496V40.896C131.322 40.672 131.306 40.4 131.274 40.08C131.258 39.744 131.202 39.424 131.106 39.12C131.01 38.816 130.866 38.552 130.674 38.328C130.498 38.104 130.258 37.992 129.954 37.992C129.746 37.992 129.578 38.096 129.45 38.304C129.322 38.512 129.218 38.776 129.138 39.096C129.058 39.416 128.994 39.768 128.946 40.152C128.914 40.536 128.89 40.904 128.874 41.256C128.874 41.592 128.874 41.888 128.874 42.144C128.874 42.4 128.866 42.568 128.85 42.648C128.178 42.376 127.57 42.128 127.026 41.904C126.802 41.808 126.578 41.72 126.354 41.64C126.13 41.56 125.93 41.488 125.754 41.424C125.578 41.344 125.426 41.288 125.298 41.256C125.186 41.208 125.122 41.184 125.106 41.184C125.314 40.816 125.554 40.416 125.826 39.984C126.114 39.536 126.466 39.128 126.882 38.76C127.298 38.392 127.786 38.088 128.346 37.848C128.906 37.592 129.57 37.464 130.338 37.464C131.17 37.464 131.922 37.536 132.594 37.68C133.282 37.824 133.866 38.056 134.346 38.376C134.826 38.696 135.194 39.112 135.45 39.624C135.722 40.136 135.858 40.76 135.858 41.496V49.224C135.858 49.656 135.914 50.032 136.026 50.352C136.154 50.656 136.314 50.872 136.506 51H130.674L131.322 49.392ZM137.363 51C137.555 50.872 137.707 50.656 137.819 50.352C137.947 50.032 138.011 49.656 138.011 49.224V39.48C138.011 39.048 137.947 38.632 137.819 38.232C137.707 37.832 137.555 37.568 137.363 37.44H143.027C142.931 37.6 142.851 37.816 142.787 38.088C142.739 38.36 142.699 38.648 142.667 38.952C142.635 39.256 142.611 39.56 142.595 39.864C142.595 40.152 142.579 40.408 142.547 40.632C142.643 40.392 142.811 40.088 143.051 39.72C143.291 39.352 143.595 39 143.963 38.664C144.331 38.312 144.771 38.016 145.283 37.776C145.795 37.536 146.379 37.416 147.035 37.416C147.115 37.416 147.187 37.416 147.251 37.416C147.315 37.416 147.387 37.424 147.467 37.44L145.979 42.864C145.867 42.592 145.675 42.344 145.403 42.12C145.131 41.896 144.835 41.704 144.515 41.544C144.211 41.384 143.907 41.264 143.603 41.184C143.299 41.088 143.051 41.04 142.859 41.04C142.651 41.04 142.547 41.088 142.547 41.184V49.224C142.547 49.656 142.603 50.032 142.715 50.352C142.843 50.656 143.003 50.872 143.195 51H137.363ZM153.471 42.696C152.463 43.32 151.711 43.912 151.215 44.472C150.735 45.016 150.495 45.64 150.495 46.344C150.495 46.76 150.519 47.152 150.567 47.52C150.615 47.888 150.695 48.208 150.807 48.48C150.935 48.752 151.111 48.968 151.335 49.128C151.559 49.272 151.847 49.344 152.199 49.344C152.567 49.344 152.871 49.24 153.111 49.032C153.351 48.808 153.471 48.504 153.471 48.12V42.696ZM153.471 49.392C153.119 49.92 152.687 50.36 152.175 50.712C151.663 51.064 151.175 51.24 150.711 51.24C149.943 51.24 149.311 51.128 148.815 50.904C148.319 50.664 147.935 50.36 147.663 49.992C147.391 49.624 147.207 49.216 147.111 48.768C147.031 48.32 146.999 47.888 147.015 47.472C147.031 47.04 147.087 46.648 147.183 46.296C147.295 45.944 147.399 45.688 147.495 45.528C147.767 45.096 148.071 44.768 148.407 44.544C148.759 44.304 149.127 44.112 149.511 43.968C149.895 43.824 150.279 43.704 150.663 43.608C151.063 43.496 151.439 43.36 151.791 43.2C152.159 43.04 152.487 42.832 152.775 42.576C153.063 42.32 153.295 41.96 153.471 41.496V40.896C153.471 40.672 153.455 40.4 153.423 40.08C153.407 39.744 153.351 39.424 153.255 39.12C153.159 38.816 153.015 38.552 152.823 38.328C152.647 38.104 152.407 37.992 152.103 37.992C151.895 37.992 151.727 38.096 151.599 38.304C151.471 38.512 151.367 38.776 151.287 39.096C151.207 39.416 151.143 39.768 151.095 40.152C151.063 40.536 151.039 40.904 151.023 41.256C151.023 41.592 151.023 41.888 151.023 42.144C151.023 42.4 151.015 42.568 150.999 42.648C150.327 42.376 149.719 42.128 149.175 41.904C148.951 41.808 148.727 41.72 148.503 41.64C148.279 41.56 148.079 41.488 147.903 41.424C147.727 41.344 147.575 41.288 147.447 41.256C147.335 41.208 147.271 41.184 147.255 41.184C147.463 40.816 147.703 40.416 147.975 39.984C148.263 39.536 148.615 39.128 149.031 38.76C149.447 38.392 149.935 38.088 150.495 37.848C151.055 37.592 151.719 37.464 152.487 37.464C153.319 37.464 154.071 37.536 154.743 37.68C155.431 37.824 156.015 38.056 156.495 38.376C156.975 38.696 157.343 39.112 157.599 39.624C157.871 40.136 158.007 40.76 158.007 41.496V49.224C158.007 49.656 158.063 50.032 158.175 50.352C158.303 50.656 158.463 50.872 158.655 51H152.823L153.471 49.392ZM159.511 51C159.607 50.936 159.695 50.808 159.775 50.616C159.855 50.408 159.919 50.184 159.967 49.944C160.031 49.688 160.079 49.424 160.111 49.152C160.143 48.864 160.159 48.616 160.159 48.408V39.48C160.159 39.048 160.095 38.632 159.967 38.232C159.855 37.832 159.703 37.568 159.511 37.44H165.223C164.967 37.552 164.807 37.704 164.743 37.896C164.679 38.072 164.655 38.288 164.671 38.544L164.695 38.952C165.079 38.952 165.431 38.88 165.751 38.736C166.071 38.576 166.367 38.408 166.639 38.232C166.927 38.04 167.199 37.872 167.455 37.728C167.727 37.568 167.991 37.48 168.247 37.464H168.607C169.311 37.464 169.879 37.552 170.311 37.728C170.759 37.888 171.103 38.136 171.343 38.472C171.599 38.792 171.767 39.2 171.847 39.696C171.943 40.176 171.991 40.736 171.991 41.376V48.408C171.991 48.616 172.007 48.864 172.039 49.152C172.071 49.424 172.111 49.688 172.159 49.944C172.223 50.184 172.295 50.408 172.375 50.616C172.455 50.808 172.543 50.936 172.639 51H166.807C166.903 50.936 166.991 50.808 167.071 50.616C167.151 50.408 167.215 50.184 167.263 49.944C167.327 49.688 167.375 49.424 167.407 49.152C167.439 48.864 167.455 48.616 167.455 48.408V41.376C167.455 40.608 167.319 40.096 167.047 39.84C166.775 39.584 166.287 39.456 165.583 39.456C165.455 39.456 165.311 39.456 165.151 39.456C165.007 39.456 164.847 39.464 164.671 39.48L164.695 48.408C164.695 48.616 164.711 48.864 164.743 49.152C164.775 49.424 164.815 49.688 164.863 49.944C164.927 50.184 164.999 50.408 165.079 50.616C165.159 50.808 165.247 50.936 165.343 51H159.511ZM178.372 49.08C178.372 48.792 178.42 48.528 178.516 48.288C178.628 48.048 178.772 47.84 178.948 47.664C179.14 47.472 179.356 47.328 179.596 47.232C179.836 47.12 180.092 47.064 180.364 47.064C180.924 47.064 181.396 47.264 181.78 47.664C182.18 48.048 182.38 48.52 182.38 49.08C182.38 49.352 182.324 49.608 182.212 49.848C182.116 50.088 181.972 50.304 181.78 50.496C181.604 50.672 181.396 50.816 181.156 50.928C180.916 51.024 180.652 51.072 180.364 51.072C179.804 51.072 179.332 50.88 178.948 50.496C178.564 50.112 178.372 49.64 178.372 49.08Z" fill="#222222"/>
<path d="M28.3681 54C28.4552 54 28.5422 54 28.6319 54C28.7219 53.5158 28.7919 53.0297 28.8556 52.5433C28.8762 52.3884 28.8968 52.2334 28.9181 52.0738C28.9865 51.5569 29.053 51.0398 29.1193 50.5228C29.1662 50.1636 29.2131 49.8045 29.2601 49.4454C29.3588 48.6895 29.4565 47.9334 29.5535 47.1774C29.6773 46.2135 29.8035 45.2498 29.9305 44.2862C30.0282 43.5426 30.1245 42.799 30.2204 42.0554C30.2663 41.7005 30.3127 41.3456 30.3596 40.9908C30.6022 39.1467 30.8007 37.3245 30.7423 35.4706C31.0361 35.6578 31.33 35.845 31.6327 36.0378C31.9482 36.225 32.2638 36.4122 32.589 36.605C32.7631 36.605 32.9372 36.605 33.1166 36.605C33.2471 36.8858 33.2471 36.8858 33.3804 37.1723C33.8328 37.4574 33.8328 37.4574 34.4191 37.7631C35.591 38.3951 36.6748 39.0751 37.7579 39.7831C38.486 40.2584 39.2257 40.723 39.9703 41.185C40.3661 41.4346 40.7561 41.689 41.143 41.9457C41.3562 42.0863 41.5694 42.227 41.7891 42.3718C42.0819 42.5678 42.0819 42.5678 42.3806 42.7677C42.5445 42.8555 42.7084 42.9432 42.8773 43.0336C43.0514 42.9712 43.2255 42.9088 43.4049 42.8445C42.9178 42.4888 42.4278 42.135 41.9272 41.7891C41.0803 41.1772 40.3455 40.5137 39.5932 39.8422C38.8161 39.1608 38.0127 38.497 37.2055 37.834C36.9145 37.5931 36.6235 37.352 36.3327 37.111C35.7947 36.6668 35.253 36.2249 34.7066 35.786C34.3684 35.507 34.3684 35.507 34.0234 35.2224C33.8217 35.0594 33.6201 34.8963 33.4123 34.7283C33.3147 34.5989 33.2171 34.4695 33.1166 34.3361C34.3123 33.9076 35.4277 33.7876 36.7325 33.6515C36.9851 33.624 37.2378 33.5965 37.498 33.5681C38.3071 33.4802 39.1165 33.394 39.926 33.308C40.9831 33.1949 42.04 33.081 43.0968 32.9661C43.3512 32.9384 43.6057 32.9108 43.8679 32.8823C45.9251 32.6553 47.965 32.3813 50 32.0672C47.5651 30.9038 43.1266 31.1513 40.208 30.9593C39.4416 30.9087 38.6755 30.8569 37.9093 30.805C37.4164 30.7722 36.9235 30.7394 36.4306 30.7068C36.2044 30.6914 35.9782 30.6761 35.7452 30.6602C34.5128 30.5801 33.2987 30.5393 32.0614 30.5546C32.3093 30.3426 32.3093 30.3426 32.5622 30.1262C32.7778 29.94 32.9934 29.7538 33.2155 29.562C33.4297 29.3777 33.644 29.1935 33.8647 29.0036C34.4356 28.4748 34.4356 28.4748 34.9632 27.7185C35.1373 27.7185 35.3114 27.7185 35.4908 27.7185C35.8424 27.4411 36.1738 27.1507 36.4966 26.8558C37.509 25.9485 38.5487 25.0614 39.6127 24.1851C39.7596 24.0637 39.9065 23.9422 40.0579 23.8171C40.839 23.1725 41.6315 22.5365 42.4321 21.9044C42.6661 21.7016 42.9001 21.4988 43.1411 21.2899C43.1411 21.1027 43.1411 20.9155 43.1411 20.7227C42.9463 20.8531 42.7514 20.9835 42.5506 21.1178C41.2535 21.979 39.9562 22.8272 38.574 23.6179C37.1736 24.4244 35.8738 25.3001 34.5702 26.1844C33.2616 27.0671 31.9036 27.8809 30.4785 28.6639C30.4687 28.4419 30.4588 28.22 30.4486 27.9913C30.272 24.4696 29.8989 20.9574 29.5331 17.4437C29.4402 16.551 29.3493 15.6581 29.259 14.7652C29.1889 14.0744 29.1175 13.3836 29.0458 12.6929C29.0118 12.3631 28.9781 12.0332 28.9449 11.7034C28.8988 11.2478 28.8509 10.7923 28.803 10.3369C28.7762 10.0779 28.7495 9.81896 28.7219 9.55216C28.6922 9.36995 28.6625 9.18773 28.6319 9C28.5448 9 28.4578 9 28.3681 9C28.2859 9.54802 28.2222 10.0926 28.1686 10.6422C28.1506 10.8168 28.1325 10.9914 28.1139 11.1713C28.0541 11.7533 27.9962 12.3353 27.9384 12.9174C27.8975 13.3207 27.8564 13.7241 27.8153 14.1274C27.7291 14.9756 27.6439 15.8237 27.5592 16.672C27.4509 17.7571 27.3408 18.8421 27.2301 19.9271C27.1451 20.7615 27.0609 21.5959 26.9769 22.4303C26.9366 22.8302 26.8961 23.23 26.8554 23.6298C26.7984 24.1909 26.7425 24.7521 26.6868 25.3133C26.6699 25.4776 26.6531 25.6419 26.6357 25.8112C26.5424 26.764 26.5061 27.7088 26.5215 28.6639C26.0592 28.3965 25.5977 28.1285 25.1365 27.8603C24.7509 27.6365 24.7509 27.6365 24.3575 27.4083C23.6241 26.9797 23.6241 26.9797 23.0302 26.5279C22.8765 26.4216 22.7228 26.3154 22.5644 26.2059C22.3903 26.2059 22.2162 26.2059 22.0368 26.2059C22.0368 26.0811 22.0368 25.9563 22.0368 25.8277C21.6435 25.5763 21.233 25.3386 20.8167 25.1069C19.2222 24.1965 17.7493 23.2093 16.2764 22.2013C15.5781 21.7552 14.943 21.4157 14.1227 21.1008C14.6004 21.7856 15.0063 22.1706 15.722 22.7198C16.777 23.5446 17.7708 24.3939 18.7527 25.2635C19.4827 25.901 20.2306 26.5264 20.9816 27.1513C22.3267 28.2711 23.6409 29.4066 24.9387 30.5546C24.6824 30.564 24.4262 30.5734 24.1622 30.5831C21.2299 30.6979 18.309 30.8657 15.3851 31.0603C14.6266 31.1105 13.8679 31.1588 13.1092 31.2072C12.6196 31.2394 12.1299 31.2718 11.6403 31.3043C11.3055 31.3253 11.3055 31.3253 10.964 31.3467C9.60207 31.4397 8.31346 31.6019 7 31.8782C7 31.9405 7 32.0029 7 32.0672C7.95901 32.2063 8.91617 32.3325 9.8802 32.4513C10.1765 32.4883 10.4729 32.5254 10.7782 32.5636C11.4095 32.6422 12.041 32.7204 12.6725 32.7981C13.6288 32.9161 14.5844 33.0363 15.5401 33.1566C16.1541 33.2328 16.7681 33.3089 17.3821 33.3848C17.8057 33.4383 17.8057 33.4383 18.2378 33.4929C20.2032 33.7325 22.1576 33.8704 24.1472 33.958C22.7504 35.3596 21.1659 36.6403 19.5855 37.9357C18.88 38.5167 18.1835 39.1033 17.4862 39.6893C16.2123 40.7565 14.9158 41.8071 13.5951 42.8445C13.8563 42.8445 14.1174 42.8445 14.3865 42.8445C15.2274 42.3955 15.2274 42.3955 15.9693 41.8992C15.9693 41.7744 15.9693 41.6496 15.9693 41.521C16.3175 41.3962 16.6658 41.2714 17.0245 41.1429C17.5237 40.8319 18.0117 40.5116 18.4919 40.1857C19.7515 39.3443 21.0428 38.5524 22.3841 37.7794C23.3543 37.2065 24.2793 36.601 25.2035 35.9905C25.6996 35.6506 25.6996 35.6506 26.2577 35.4706C26.3125 35.898 26.3125 35.898 26.2732 36.4494C26.2463 37.6604 26.366 38.8363 26.5369 40.0402C26.5656 40.2518 26.5942 40.4633 26.6238 40.6814C26.7146 41.3513 26.8075 42.0211 26.9007 42.6909C27.0223 43.572 27.143 44.4531 27.2624 45.3343C27.2911 45.546 27.3198 45.7577 27.3494 45.9758C27.5423 47.4261 27.6831 48.8737 27.789 50.3287C27.8522 51.1214 27.9635 51.9008 28.1043 52.6883C28.1478 52.9401 28.1914 53.1918 28.2362 53.4512C28.2797 53.6323 28.3233 53.8134 28.3681 54Z" fill="#222222"/>
<path d="M53.696 15.44C53.84 14.832 54.064 14.32 54.368 13.904C54.672 13.488 55.04 13.152 55.472 12.896C55.92 12.64 56.416 12.464 56.96 12.368C57.504 12.256 58.08 12.2 58.688 12.2H64.592C64.592 12.296 64.552 12.608 64.472 13.136C64.392 13.664 64.296 14.296 64.184 15.032C64.072 15.752 63.952 16.52 63.824 17.336C63.696 18.152 63.584 18.896 63.488 19.568C63.328 19.152 63.136 18.704 62.912 18.224C62.688 17.744 62.44 17.264 62.168 16.784C61.896 16.304 61.608 15.84 61.304 15.392C61 14.944 60.688 14.552 60.368 14.216C60.064 13.864 59.752 13.576 59.432 13.352C59.128 13.128 58.84 13.008 58.568 12.992H58.256C57.616 12.992 57.096 13.128 56.696 13.4C56.296 13.656 56.16 14.056 56.288 14.6C56.4 15.032 56.728 15.528 57.272 16.088C57.816 16.648 58.44 17.216 59.144 17.792C59.864 18.368 60.592 18.936 61.328 19.496C62.08 20.04 62.704 20.536 63.2 20.984C63.68 21.4 64.072 21.896 64.376 22.472C64.696 23.032 64.904 23.608 65 24.2C65.112 24.792 65.096 25.376 64.952 25.952C64.808 26.528 64.512 27.04 64.064 27.488C63.632 27.936 63.032 28.304 62.264 28.592C61.496 28.864 60.536 29 59.384 29H54.056V23.216C54.328 23.648 54.664 24.152 55.064 24.728C55.464 25.288 55.912 25.832 56.408 26.36C56.904 26.872 57.432 27.304 57.992 27.656C58.552 28.008 59.12 28.184 59.696 28.184C60.192 28.184 60.56 28.08 60.8 27.872C61.056 27.648 61.128 27.344 61.016 26.96C60.92 26.576 60.616 26.12 60.104 25.592C59.592 25.064 58.816 24.488 57.776 23.864C56.672 23.192 55.816 22.48 55.208 21.728C54.616 20.96 54.192 20.208 53.936 19.472C53.68 18.72 53.552 18 53.552 17.312C53.552 16.608 53.6 15.984 53.696 15.44ZM71.3203 15.464V25.328C71.3203 26.016 71.4483 26.528 71.7043 26.864C71.9763 27.2 72.3523 27.368 72.8323 27.368C73.1843 27.368 73.4803 27.256 73.7203 27.032C73.9603 26.792 74.0803 26.488 74.0803 26.12V17.24C74.0803 16.808 74.0163 16.44 73.8883 16.136C73.7763 15.816 73.6243 15.592 73.4323 15.464H78.6163V27.224C78.6163 27.656 78.6723 28.032 78.7843 28.352C78.9123 28.656 79.0723 28.872 79.2643 29H74.3203L74.0803 27.392C73.9203 27.632 73.7043 27.864 73.4323 28.088C73.1763 28.312 72.8963 28.512 72.5923 28.688C72.2883 28.848 71.9763 28.976 71.6562 29.072C71.3523 29.184 71.0643 29.24 70.7923 29.24C69.4643 29.24 68.4643 28.928 67.7923 28.304C67.1203 27.664 66.7843 26.672 66.7843 25.328V17.24C66.7843 16.808 66.7203 16.44 66.5923 16.136C66.4803 15.816 66.3283 15.592 66.1363 15.464H71.3203ZM80.1753 15.464H85.9833C85.7913 15.656 85.6313 15.88 85.5033 16.136C85.3913 16.392 85.3433 16.632 85.3593 16.856C85.6313 16.808 85.9033 16.712 86.1753 16.568C86.4633 16.424 86.7433 16.28 87.0153 16.136C87.3033 15.976 87.5833 15.832 87.8553 15.704C88.1273 15.576 88.3913 15.496 88.6473 15.464C88.7753 15.432 88.9033 15.416 89.0313 15.416C89.1593 15.416 89.2873 15.416 89.4153 15.416C90.2793 15.416 90.9913 15.616 91.5513 16.016C92.1273 16.4 92.4553 16.944 92.5353 17.648C92.6953 17.472 92.8953 17.256 93.1353 17C93.3913 16.744 93.6713 16.504 93.9753 16.28C94.2953 16.056 94.6233 15.864 94.9593 15.704C95.2953 15.544 95.6233 15.464 95.9433 15.464C97.2713 15.464 98.2713 15.784 98.9433 16.424C99.6153 17.048 99.9513 18.032 99.9513 19.376V27.224C99.9513 27.656 100.007 28.032 100.119 28.352C100.247 28.656 100.407 28.872 100.599 29H94.7673C94.9593 28.872 95.1113 28.656 95.2233 28.352C95.3513 28.032 95.4153 27.656 95.4153 27.224V19.376C95.4153 18.752 95.2873 18.272 95.0313 17.936C94.7913 17.584 94.4953 17.408 94.1433 17.408C94.1113 17.408 94.0793 17.416 94.0473 17.432C94.0313 17.432 94.0073 17.432 93.9753 17.432C93.7513 17.432 93.5513 17.488 93.3753 17.6C93.2153 17.696 93.0793 17.816 92.9673 17.96C92.8713 18.088 92.7913 18.216 92.7273 18.344C92.6793 18.456 92.6553 18.536 92.6553 18.584V27.224C92.6553 27.656 92.7113 28.032 92.8233 28.352C92.9513 28.656 93.1113 28.872 93.3033 29H87.4713C87.6633 28.872 87.8153 28.656 87.9273 28.352C88.0553 28.032 88.1193 27.656 88.1193 27.224V19.376C88.1193 18.688 88.0153 18.168 87.8073 17.816C87.5993 17.448 87.3193 17.264 86.9673 17.264C86.8233 17.264 86.6713 17.272 86.5113 17.288C86.3673 17.32 86.1913 17.352 85.9833 17.384C85.7913 17.416 85.5833 17.472 85.3593 17.552V27.224C85.3593 27.656 85.4153 28.032 85.5273 28.352C85.6553 28.656 85.8153 28.872 86.0073 29H80.1753C80.3673 28.872 80.5193 28.656 80.6313 28.352C80.7593 28.032 80.8233 27.656 80.8233 27.224V17.48C80.8233 17.048 80.7593 16.64 80.6313 16.256C80.5193 15.856 80.3673 15.592 80.1753 15.464ZM107.58 20.696C106.572 21.32 105.82 21.912 105.324 22.472C104.844 23.016 104.604 23.64 104.604 24.344C104.604 24.76 104.628 25.152 104.676 25.52C104.724 25.888 104.804 26.208 104.916 26.48C105.044 26.752 105.22 26.968 105.444 27.128C105.668 27.272 105.956 27.344 106.308 27.344C106.676 27.344 106.98 27.24 107.22 27.032C107.46 26.808 107.58 26.504 107.58 26.12V20.696ZM107.58 27.392C107.228 27.92 106.796 28.36 106.284 28.712C105.772 29.064 105.284 29.24 104.82 29.24C104.052 29.24 103.42 29.128 102.924 28.904C102.428 28.664 102.044 28.36 101.772 27.992C101.5 27.624 101.316 27.216 101.22 26.768C101.14 26.32 101.108 25.888 101.124 25.472C101.14 25.04 101.196 24.648 101.292 24.296C101.404 23.944 101.508 23.688 101.604 23.528C101.876 23.096 102.18 22.768 102.516 22.544C102.868 22.304 103.236 22.112 103.62 21.968C104.004 21.824 104.388 21.704 104.772 21.608C105.172 21.496 105.548 21.36 105.9 21.2C106.268 21.04 106.596 20.832 106.884 20.576C107.172 20.32 107.404 19.96 107.58 19.496V18.896C107.58 18.672 107.564 18.4 107.532 18.08C107.516 17.744 107.46 17.424 107.364 17.12C107.268 16.816 107.124 16.552 106.932 16.328C106.756 16.104 106.516 15.992 106.212 15.992C106.004 15.992 105.836 16.096 105.708 16.304C105.58 16.512 105.476 16.776 105.396 17.096C105.316 17.416 105.252 17.768 105.204 18.152C105.172 18.536 105.148 18.904 105.132 19.256C105.132 19.592 105.132 19.888 105.132 20.144C105.132 20.4 105.124 20.568 105.108 20.648C104.436 20.376 103.828 20.128 103.284 19.904C103.06 19.808 102.836 19.72 102.612 19.64C102.388 19.56 102.188 19.488 102.012 19.424C101.836 19.344 101.684 19.288 101.556 19.256C101.444 19.208 101.38 19.184 101.364 19.184C101.572 18.816 101.812 18.416 102.084 17.984C102.372 17.536 102.724 17.128 103.14 16.76C103.556 16.392 104.044 16.088 104.604 15.848C105.164 15.592 105.828 15.464 106.596 15.464C107.428 15.464 108.18 15.536 108.852 15.68C109.54 15.824 110.124 16.056 110.604 16.376C111.084 16.696 111.452 17.112 111.708 17.624C111.98 18.136 112.116 18.76 112.116 19.496V27.224C112.116 27.656 112.172 28.032 112.284 28.352C112.412 28.656 112.572 28.872 112.764 29H106.932L107.58 27.392ZM113.621 29C113.717 28.936 113.805 28.808 113.885 28.616C113.965 28.408 114.029 28.184 114.077 27.944C114.141 27.688 114.189 27.424 114.221 27.152C114.253 26.864 114.269 26.616 114.269 26.408V17.48C114.269 17.048 114.205 16.632 114.077 16.232C113.965 15.832 113.813 15.568 113.621 15.44H119.333C119.077 15.552 118.917 15.704 118.853 15.896C118.789 16.072 118.765 16.288 118.781 16.544L118.805 16.952C119.189 16.952 119.541 16.88 119.861 16.736C120.181 16.576 120.477 16.408 120.749 16.232C121.037 16.04 121.309 15.872 121.565 15.728C121.837 15.568 122.101 15.48 122.357 15.464H122.717C123.421 15.464 123.989 15.552 124.421 15.728C124.869 15.888 125.213 16.136 125.453 16.472C125.709 16.792 125.877 17.2 125.957 17.696C126.053 18.176 126.101 18.736 126.101 19.376V26.408C126.101 26.616 126.117 26.864 126.149 27.152C126.181 27.424 126.221 27.688 126.269 27.944C126.333 28.184 126.405 28.408 126.485 28.616C126.565 28.808 126.653 28.936 126.749 29H120.917C121.013 28.936 121.101 28.808 121.181 28.616C121.261 28.408 121.325 28.184 121.373 27.944C121.437 27.688 121.485 27.424 121.517 27.152C121.549 26.864 121.565 26.616 121.565 26.408V19.376C121.565 18.608 121.429 18.096 121.157 17.84C120.885 17.584 120.397 17.456 119.693 17.456C119.565 17.456 119.421 17.456 119.261 17.456C119.117 17.456 118.957 17.464 118.781 17.48L118.805 26.408C118.805 26.616 118.821 26.864 118.853 27.152C118.885 27.424 118.925 27.688 118.973 27.944C119.037 28.184 119.109 28.408 119.189 28.616C119.269 28.808 119.357 28.936 119.453 29H113.621ZM125.117 13.616H128.069C128.341 13.52 128.645 13.352 128.981 13.112C129.333 12.872 129.701 12.592 130.085 12.272C130.469 11.936 130.853 11.568 131.237 11.168C131.637 10.768 132.021 10.368 132.389 9.968H132.629V13.472H134.957V14.072H132.629V25.496C132.629 26.216 132.765 26.736 133.037 27.056C133.325 27.376 133.781 27.536 134.405 27.536C134.773 27.536 135.029 27.44 135.173 27.248L135.389 27.392C135.229 27.632 135.013 27.864 134.741 28.088C134.485 28.312 134.205 28.512 133.901 28.688C133.597 28.848 133.285 28.976 132.965 29.072C132.661 29.184 132.373 29.24 132.101 29.24C130.773 29.24 129.773 28.928 129.101 28.304C128.429 27.664 128.093 26.672 128.093 25.328V14.072H124.949C123.973 14.12 122.933 14.176 121.829 14.24C120.741 14.288 119.677 14.352 118.637 14.432C117.597 14.512 116.621 14.608 115.709 14.72C114.797 14.816 114.029 14.944 113.405 15.104C113.101 15.184 112.925 15.232 112.877 15.248C112.813 15.248 112.829 15.24 112.925 15.224C113.021 15.192 113.165 15.152 113.357 15.104C113.549 15.056 113.733 15.008 113.909 14.96C114.101 14.912 114.253 14.872 114.365 14.84C114.477 14.792 114.509 14.768 114.461 14.768C114.237 14.768 114.101 14.704 114.053 14.576C114.005 14.432 114.053 14.184 114.197 13.832C114.341 13.464 114.581 12.976 114.917 12.368C115.253 11.76 115.693 10.992 116.237 10.064C116.813 10.432 117.469 10.824 118.205 11.24C118.957 11.64 119.725 12.008 120.509 12.344C121.309 12.68 122.101 12.968 122.885 13.208C123.685 13.448 124.429 13.584 125.117 13.616ZM134.761 29C134.953 28.872 135.105 28.656 135.217 28.352C135.345 28.032 135.409 27.656 135.409 27.224V13.976C135.409 13.544 135.345 13.176 135.217 12.872C135.105 12.552 134.953 12.328 134.761 12.2H140.665C140.521 12.296 140.401 12.424 140.305 12.584C140.209 12.728 140.137 12.888 140.089 13.064C140.041 13.24 140.001 13.416 139.969 13.592C139.953 13.752 139.945 13.888 139.945 14V17.312C140.105 17.072 140.313 16.84 140.569 16.616C140.841 16.392 141.129 16.2 141.433 16.04C141.737 15.864 142.049 15.728 142.369 15.632C142.689 15.52 142.977 15.464 143.233 15.464C144.561 15.464 145.561 15.784 146.233 16.424C146.905 17.048 147.241 18.032 147.241 19.376V27.224C147.241 27.656 147.297 28.032 147.409 28.352C147.537 28.656 147.697 28.872 147.889 29H142.057C142.249 28.872 142.401 28.656 142.513 28.352C142.641 28.032 142.705 27.656 142.705 27.224V19.376C142.705 18.688 142.569 18.176 142.297 17.84C142.041 17.504 141.673 17.336 141.193 17.336C140.841 17.336 140.545 17.456 140.305 17.696C140.065 17.92 139.945 18.216 139.945 18.584V27.224C139.945 27.656 140.001 28.032 140.113 28.352C140.241 28.656 140.401 28.872 140.593 29H134.761ZM54.416 45.232V35.104C54.416 34.912 54.4 34.688 54.368 34.432C54.352 34.16 54.304 33.888 54.224 33.616C54.16 33.344 54.056 33.088 53.912 32.848C53.784 32.592 53.6 32.376 53.36 32.2H59.72L63.032 41.752L66.032 32.2H71.6C71.36 32.376 71.168 32.592 71.024 32.848C70.896 33.088 70.792 33.344 70.712 33.616C70.648 33.888 70.6 34.16 70.568 34.432C70.552 34.688 70.544 34.912 70.544 35.104V46.168C70.544 46.36 70.552 46.592 70.568 46.864C70.6 47.12 70.648 47.384 70.712 47.656C70.792 47.928 70.896 48.184 71.024 48.424C71.168 48.664 71.36 48.856 71.6 49H64.976C65.216 48.856 65.4 48.664 65.528 48.424C65.672 48.184 65.776 47.928 65.84 47.656C65.92 47.384 65.968 47.12 65.984 46.864C66.016 46.592 66.032 46.36 66.032 46.168V34.504L61.52 49H59.624C59.656 49 59.736 48.96 59.864 48.88C60.008 48.784 60.152 48.68 60.296 48.568C60.44 48.456 60.568 48.344 60.68 48.232C60.792 48.12 60.848 48.048 60.848 48.016L55.16 34.288V42.712C55.16 42.84 55.192 43.072 55.256 43.408C55.336 43.744 55.44 44.128 55.568 44.56C55.712 44.992 55.872 45.448 56.048 45.928C56.24 46.408 56.456 46.864 56.696 47.296C56.936 47.712 57.2 48.08 57.488 48.4C57.776 48.704 58.08 48.904 58.4 49H53.36C53.6 48.856 53.784 48.616 53.912 48.28C54.056 47.928 54.16 47.56 54.224 47.176C54.304 46.792 54.352 46.424 54.368 46.072C54.4 45.704 54.416 45.424 54.416 45.232ZM78.6815 40.696C77.6735 41.32 76.9215 41.912 76.4255 42.472C75.9455 43.016 75.7055 43.64 75.7055 44.344C75.7055 44.76 75.7295 45.152 75.7775 45.52C75.8255 45.888 75.9055 46.208 76.0175 46.48C76.1455 46.752 76.3215 46.968 76.5455 47.128C76.7695 47.272 77.0575 47.344 77.4095 47.344C77.7775 47.344 78.0815 47.24 78.3215 47.032C78.5615 46.808 78.6815 46.504 78.6815 46.12V40.696ZM78.6815 47.392C78.3295 47.92 77.8975 48.36 77.3855 48.712C76.8735 49.064 76.3855 49.24 75.9215 49.24C75.1535 49.24 74.5215 49.128 74.0255 48.904C73.5295 48.664 73.1455 48.36 72.8735 47.992C72.6015 47.624 72.4175 47.216 72.3215 46.768C72.2415 46.32 72.2095 45.888 72.2255 45.472C72.2415 45.04 72.2975 44.648 72.3935 44.296C72.5055 43.944 72.6095 43.688 72.7055 43.528C72.9775 43.096 73.2815 42.768 73.6175 42.544C73.9695 42.304 74.3375 42.112 74.7215 41.968C75.1055 41.824 75.4895 41.704 75.8735 41.608C76.2735 41.496 76.6495 41.36 77.0015 41.2C77.3695 41.04 77.6975 40.832 77.9855 40.576C78.2735 40.32 78.5055 39.96 78.6815 39.496V38.896C78.6815 38.672 78.6655 38.4 78.6335 38.08C78.6175 37.744 78.5615 37.424 78.4655 37.12C78.3695 36.816 78.2255 36.552 78.0335 36.328C77.8575 36.104 77.6175 35.992 77.3135 35.992C77.1055 35.992 76.9375 36.096 76.8095 36.304C76.6815 36.512 76.5775 36.776 76.4975 37.096C76.4175 37.416 76.3535 37.768 76.3055 38.152C76.2735 38.536 76.2495 38.904 76.2335 39.256C76.2335 39.592 76.2335 39.888 76.2335 40.144C76.2335 40.4 76.2255 40.568 76.2095 40.648C75.5375 40.376 74.9295 40.128 74.3855 39.904C74.1615 39.808 73.9375 39.72 73.7135 39.64C73.4895 39.56 73.2895 39.488 73.1135 39.424C72.9375 39.344 72.7855 39.288 72.6575 39.256C72.5455 39.208 72.4815 39.184 72.4655 39.184C72.6735 38.816 72.9135 38.416 73.1855 37.984C73.4735 37.536 73.8255 37.128 74.2415 36.76C74.6575 36.392 75.1455 36.088 75.7055 35.848C76.2655 35.592 76.9295 35.464 77.6975 35.464C78.5295 35.464 79.2815 35.536 79.9535 35.68C80.6415 35.824 81.2255 36.056 81.7055 36.376C82.1855 36.696 82.5535 37.112 82.8095 37.624C83.0815 38.136 83.2175 38.76 83.2175 39.496V47.224C83.2175 47.656 83.2735 48.032 83.3855 48.352C83.5135 48.656 83.6735 48.872 83.8655 49H78.0335L78.6815 47.392ZM84.7222 49C84.8182 48.936 84.9062 48.808 84.9862 48.616C85.0662 48.408 85.1302 48.184 85.1782 47.944C85.2422 47.688 85.2902 47.424 85.3222 47.152C85.3542 46.864 85.3702 46.616 85.3702 46.408V37.48C85.3702 37.048 85.3062 36.632 85.1782 36.232C85.0662 35.832 84.9142 35.568 84.7222 35.44H90.4342C90.1782 35.552 90.0182 35.704 89.9542 35.896C89.8902 36.072 89.8662 36.288 89.8822 36.544L89.9062 36.952C90.2902 36.952 90.6422 36.88 90.9622 36.736C91.2822 36.576 91.5782 36.408 91.8502 36.232C92.1382 36.04 92.4102 35.872 92.6662 35.728C92.9382 35.568 93.2022 35.48 93.4582 35.464H93.8182C94.5222 35.464 95.0902 35.552 95.5222 35.728C95.9702 35.888 96.3142 36.136 96.5542 36.472C96.8102 36.792 96.9782 37.2 97.0582 37.696C97.1542 38.176 97.2022 38.736 97.2022 39.376V46.408C97.2022 46.616 97.2182 46.864 97.2502 47.152C97.2822 47.424 97.3222 47.688 97.3702 47.944C97.4342 48.184 97.5062 48.408 97.5862 48.616C97.6662 48.808 97.7542 48.936 97.8502 49H92.0182C92.1142 48.936 92.2022 48.808 92.2822 48.616C92.3622 48.408 92.4262 48.184 92.4742 47.944C92.5382 47.688 92.5862 47.424 92.6182 47.152C92.6502 46.864 92.6662 46.616 92.6662 46.408V39.376C92.6662 38.608 92.5302 38.096 92.2582 37.84C91.9862 37.584 91.4982 37.456 90.7942 37.456C90.6662 37.456 90.5222 37.456 90.3622 37.456C90.2182 37.456 90.0582 37.464 89.8822 37.48L89.9062 46.408C89.9062 46.616 89.9222 46.864 89.9542 47.152C89.9862 47.424 90.0262 47.688 90.0742 47.944C90.1382 48.184 90.2102 48.408 90.2902 48.616C90.3702 48.808 90.4582 48.936 90.5542 49H84.7222ZM98.4303 42.448C98.4303 41.392 98.5743 40.44 98.8623 39.592C99.1503 38.728 99.5583 37.992 100.086 37.384C100.614 36.776 101.246 36.304 101.982 35.968C102.718 35.632 103.542 35.464 104.454 35.464C105.366 35.464 106.19 35.632 106.926 35.968C107.662 36.304 108.294 36.776 108.822 37.384C109.35 37.992 109.758 38.728 110.046 39.592C110.334 40.44 110.478 41.392 110.478 42.448C110.478 43.472 110.334 44.4 110.046 45.232C109.758 46.064 109.35 46.776 108.822 47.368C108.294 47.96 107.662 48.424 106.926 48.76C106.19 49.08 105.366 49.24 104.454 49.24C103.542 49.24 102.718 49.08 101.982 48.76C101.246 48.424 100.614 47.96 100.086 47.368C99.5583 46.776 99.1503 46.064 98.8623 45.232C98.5743 44.4 98.4303 43.472 98.4303 42.448ZM103.182 42.448C103.406 43.648 103.606 44.648 103.782 45.448C103.974 46.248 104.166 46.896 104.358 47.392C104.55 47.872 104.742 48.216 104.934 48.424C105.142 48.616 105.366 48.712 105.606 48.712C105.846 48.712 106.03 48.616 106.158 48.424C106.286 48.216 106.35 47.872 106.35 47.392C106.366 46.896 106.318 46.248 106.206 45.448C106.11 44.648 105.95 43.648 105.726 42.448C105.502 41.232 105.294 40.216 105.102 39.4C104.91 38.568 104.718 37.904 104.526 37.408C104.334 36.896 104.134 36.536 103.926 36.328C103.734 36.104 103.518 35.992 103.278 35.992C103.038 35.992 102.854 36.104 102.726 36.328C102.614 36.536 102.55 36.896 102.534 37.408C102.534 37.904 102.582 38.568 102.678 39.4C102.79 40.216 102.958 41.232 103.182 42.448ZM111.066 49C111.258 48.872 111.41 48.656 111.522 48.352C111.65 48.032 111.714 47.656 111.714 47.224V33.976C111.714 33.544 111.65 33.176 111.522 32.872C111.41 32.552 111.258 32.328 111.066 32.2H116.97C116.826 32.296 116.706 32.424 116.61 32.584C116.514 32.728 116.442 32.888 116.394 33.064C116.346 33.24 116.306 33.416 116.274 33.592C116.258 33.752 116.25 33.888 116.25 34V37.312C116.41 37.072 116.618 36.84 116.874 36.616C117.146 36.392 117.434 36.2 117.738 36.04C118.042 35.864 118.354 35.728 118.674 35.632C118.994 35.52 119.282 35.464 119.538 35.464C120.866 35.464 121.866 35.784 122.538 36.424C123.21 37.048 123.546 38.032 123.546 39.376V47.224C123.546 47.656 123.602 48.032 123.714 48.352C123.842 48.656 124.002 48.872 124.194 49H118.362C118.554 48.872 118.706 48.656 118.818 48.352C118.946 48.032 119.01 47.656 119.01 47.224V39.376C119.01 38.688 118.874 38.176 118.602 37.84C118.346 37.504 117.978 37.336 117.498 37.336C117.146 37.336 116.85 37.456 116.61 37.696C116.37 37.92 116.25 38.216 116.25 38.584V47.224C116.25 47.656 116.306 48.032 116.418 48.352C116.546 48.656 116.706 48.872 116.898 49H111.066ZM131.322 40.696C130.314 41.32 129.562 41.912 129.066 42.472C128.586 43.016 128.346 43.64 128.346 44.344C128.346 44.76 128.37 45.152 128.418 45.52C128.466 45.888 128.546 46.208 128.658 46.48C128.786 46.752 128.962 46.968 129.186 47.128C129.41 47.272 129.698 47.344 130.05 47.344C130.418 47.344 130.722 47.24 130.962 47.032C131.202 46.808 131.322 46.504 131.322 46.12V40.696ZM131.322 47.392C130.97 47.92 130.538 48.36 130.026 48.712C129.514 49.064 129.026 49.24 128.562 49.24C127.794 49.24 127.162 49.128 126.666 48.904C126.17 48.664 125.786 48.36 125.514 47.992C125.242 47.624 125.058 47.216 124.962 46.768C124.882 46.32 124.85 45.888 124.866 45.472C124.882 45.04 124.938 44.648 125.034 44.296C125.146 43.944 125.25 43.688 125.346 43.528C125.618 43.096 125.922 42.768 126.258 42.544C126.61 42.304 126.978 42.112 127.362 41.968C127.746 41.824 128.13 41.704 128.514 41.608C128.914 41.496 129.29 41.36 129.642 41.2C130.01 41.04 130.338 40.832 130.626 40.576C130.914 40.32 131.146 39.96 131.322 39.496V38.896C131.322 38.672 131.306 38.4 131.274 38.08C131.258 37.744 131.202 37.424 131.106 37.12C131.01 36.816 130.866 36.552 130.674 36.328C130.498 36.104 130.258 35.992 129.954 35.992C129.746 35.992 129.578 36.096 129.45 36.304C129.322 36.512 129.218 36.776 129.138 37.096C129.058 37.416 128.994 37.768 128.946 38.152C128.914 38.536 128.89 38.904 128.874 39.256C128.874 39.592 128.874 39.888 128.874 40.144C128.874 40.4 128.866 40.568 128.85 40.648C128.178 40.376 127.57 40.128 127.026 39.904C126.802 39.808 126.578 39.72 126.354 39.64C126.13 39.56 125.93 39.488 125.754 39.424C125.578 39.344 125.426 39.288 125.298 39.256C125.186 39.208 125.122 39.184 125.106 39.184C125.314 38.816 125.554 38.416 125.826 37.984C126.114 37.536 126.466 37.128 126.882 36.76C127.298 36.392 127.786 36.088 128.346 35.848C128.906 35.592 129.57 35.464 130.338 35.464C131.17 35.464 131.922 35.536 132.594 35.68C133.282 35.824 133.866 36.056 134.346 36.376C134.826 36.696 135.194 37.112 135.45 37.624C135.722 38.136 135.858 38.76 135.858 39.496V47.224C135.858 47.656 135.914 48.032 136.026 48.352C136.154 48.656 136.314 48.872 136.506 49H130.674L131.322 47.392ZM137.363 49C137.555 48.872 137.707 48.656 137.819 48.352C137.947 48.032 138.011 47.656 138.011 47.224V37.48C138.011 37.048 137.947 36.632 137.819 36.232C137.707 35.832 137.555 35.568 137.363 35.44H143.027C142.931 35.6 142.851 35.816 142.787 36.088C142.739 36.36 142.699 36.648 142.667 36.952C142.635 37.256 142.611 37.56 142.595 37.864C142.595 38.152 142.579 38.408 142.547 38.632C142.643 38.392 142.811 38.088 143.051 37.72C143.291 37.352 143.595 37 143.963 36.664C144.331 36.312 144.771 36.016 145.283 35.776C145.795 35.536 146.379 35.416 147.035 35.416C147.115 35.416 147.187 35.416 147.251 35.416C147.315 35.416 147.387 35.424 147.467 35.44L145.979 40.864C145.867 40.592 145.675 40.344 145.403 40.12C145.131 39.896 144.835 39.704 144.515 39.544C144.211 39.384 143.907 39.264 143.603 39.184C143.299 39.088 143.051 39.04 142.859 39.04C142.651 39.04 142.547 39.088 142.547 39.184V47.224C142.547 47.656 142.603 48.032 142.715 48.352C142.843 48.656 143.003 48.872 143.195 49H137.363ZM153.471 40.696C152.463 41.32 151.711 41.912 151.215 42.472C150.735 43.016 150.495 43.64 150.495 44.344C150.495 44.76 150.519 45.152 150.567 45.52C150.615 45.888 150.695 46.208 150.807 46.48C150.935 46.752 151.111 46.968 151.335 47.128C151.559 47.272 151.847 47.344 152.199 47.344C152.567 47.344 152.871 47.24 153.111 47.032C153.351 46.808 153.471 46.504 153.471 46.12V40.696ZM153.471 47.392C153.119 47.92 152.687 48.36 152.175 48.712C151.663 49.064 151.175 49.24 150.711 49.24C149.943 49.24 149.311 49.128 148.815 48.904C148.319 48.664 147.935 48.36 147.663 47.992C147.391 47.624 147.207 47.216 147.111 46.768C147.031 46.32 146.999 45.888 147.015 45.472C147.031 45.04 147.087 44.648 147.183 44.296C147.295 43.944 147.399 43.688 147.495 43.528C147.767 43.096 148.071 42.768 148.407 42.544C148.759 42.304 149.127 42.112 149.511 41.968C149.895 41.824 150.279 41.704 150.663 41.608C151.063 41.496 151.439 41.36 151.791 41.2C152.159 41.04 152.487 40.832 152.775 40.576C153.063 40.32 153.295 39.96 153.471 39.496V38.896C153.471 38.672 153.455 38.4 153.423 38.08C153.407 37.744 153.351 37.424 153.255 37.12C153.159 36.816 153.015 36.552 152.823 36.328C152.647 36.104 152.407 35.992 152.103 35.992C151.895 35.992 151.727 36.096 151.599 36.304C151.471 36.512 151.367 36.776 151.287 37.096C151.207 37.416 151.143 37.768 151.095 38.152C151.063 38.536 151.039 38.904 151.023 39.256C151.023 39.592 151.023 39.888 151.023 40.144C151.023 40.4 151.015 40.568 150.999 40.648C150.327 40.376 149.719 40.128 149.175 39.904C148.951 39.808 148.727 39.72 148.503 39.64C148.279 39.56 148.079 39.488 147.903 39.424C147.727 39.344 147.575 39.288 147.447 39.256C147.335 39.208 147.271 39.184 147.255 39.184C147.463 38.816 147.703 38.416 147.975 37.984C148.263 37.536 148.615 37.128 149.031 36.76C149.447 36.392 149.935 36.088 150.495 35.848C151.055 35.592 151.719 35.464 152.487 35.464C153.319 35.464 154.071 35.536 154.743 35.68C155.431 35.824 156.015 36.056 156.495 36.376C156.975 36.696 157.343 37.112 157.599 37.624C157.871 38.136 158.007 38.76 158.007 39.496V47.224C158.007 47.656 158.063 48.032 158.175 48.352C158.303 48.656 158.463 48.872 158.655 49H152.823L153.471 47.392ZM159.511 49C159.607 48.936 159.695 48.808 159.775 48.616C159.855 48.408 159.919 48.184 159.967 47.944C160.031 47.688 160.079 47.424 160.111 47.152C160.143 46.864 160.159 46.616 160.159 46.408V37.48C160.159 37.048 160.095 36.632 159.967 36.232C159.855 35.832 159.703 35.568 159.511 35.44H165.223C164.967 35.552 164.807 35.704 164.743 35.896C164.679 36.072 164.655 36.288 164.671 36.544L164.695 36.952C165.079 36.952 165.431 36.88 165.751 36.736C166.071 36.576 166.367 36.408 166.639 36.232C166.927 36.04 167.199 35.872 167.455 35.728C167.727 35.568 167.991 35.48 168.247 35.464H168.607C169.311 35.464 169.879 35.552 170.311 35.728C170.759 35.888 171.103 36.136 171.343 36.472C171.599 36.792 171.767 37.2 171.847 37.696C171.943 38.176 171.991 38.736 171.991 39.376V46.408C171.991 46.616 172.007 46.864 172.039 47.152C172.071 47.424 172.111 47.688 172.159 47.944C172.223 48.184 172.295 48.408 172.375 48.616C172.455 48.808 172.543 48.936 172.639 49H166.807C166.903 48.936 166.991 48.808 167.071 48.616C167.151 48.408 167.215 48.184 167.263 47.944C167.327 47.688 167.375 47.424 167.407 47.152C167.439 46.864 167.455 46.616 167.455 46.408V39.376C167.455 38.608 167.319 38.096 167.047 37.84C166.775 37.584 166.287 37.456 165.583 37.456C165.455 37.456 165.311 37.456 165.151 37.456C165.007 37.456 164.847 37.464 164.671 37.48L164.695 46.408C164.695 46.616 164.711 46.864 164.743 47.152C164.775 47.424 164.815 47.688 164.863 47.944C164.927 48.184 164.999 48.408 165.079 48.616C165.159 48.808 165.247 48.936 165.343 49H159.511ZM178.372 47.08C178.372 46.792 178.42 46.528 178.516 46.288C178.628 46.048 178.772 45.84 178.948 45.664C179.14 45.472 179.356 45.328 179.596 45.232C179.836 45.12 180.092 45.064 180.364 45.064C180.924 45.064 181.396 45.264 181.78 45.664C182.18 46.048 182.38 46.52 182.38 47.08C182.38 47.352 182.324 47.608 182.212 47.848C182.116 48.088 181.972 48.304 181.78 48.496C181.604 48.672 181.396 48.816 181.156 48.928C180.916 49.024 180.652 49.072 180.364 49.072C179.804 49.072 179.332 48.88 178.948 48.496C178.564 48.112 178.372 47.64 178.372 47.08Z" fill="white"/>
<path d="M28.3681 52C28.4552 52 28.5422 52 28.6319 52C28.7219 51.5158 28.7919 51.0297 28.8556 50.5433C28.8762 50.3884 28.8968 50.2334 28.9181 50.0738C28.9865 49.5569 29.053 49.0398 29.1193 48.5228C29.1662 48.1636 29.2131 47.8045 29.2601 47.4454C29.3588 46.6895 29.4565 45.9334 29.5535 45.1774C29.6773 44.2135 29.8035 43.2498 29.9305 42.2862C30.0282 41.5426 30.1245 40.799 30.2204 40.0554C30.2663 39.7005 30.3127 39.3456 30.3596 38.9908C30.6022 37.1467 30.8007 35.3245 30.7423 33.4706C31.0361 33.6578 31.33 33.845 31.6327 34.0378C31.9482 34.225 32.2638 34.4122 32.589 34.605C32.7631 34.605 32.9372 34.605 33.1166 34.605C33.2471 34.8858 33.2471 34.8858 33.3804 35.1723C33.8328 35.4574 33.8328 35.4574 34.4191 35.7631C35.591 36.3951 36.6748 37.0751 37.7579 37.7831C38.486 38.2584 39.2257 38.723 39.9703 39.185C40.3661 39.4346 40.7561 39.689 41.143 39.9457C41.3562 40.0863 41.5694 40.227 41.7891 40.3718C42.0819 40.5678 42.0819 40.5678 42.3806 40.7677C42.5445 40.8555 42.7084 40.9432 42.8773 41.0336C43.0514 40.9712 43.2255 40.9088 43.4049 40.8445C42.9178 40.4888 42.4278 40.135 41.9272 39.7891C41.0803 39.1772 40.3455 38.5137 39.5932 37.8422C38.8161 37.1608 38.0127 36.497 37.2055 35.834C36.9145 35.5931 36.6235 35.352 36.3327 35.111C35.7947 34.6668 35.253 34.2249 34.7066 33.786C34.3684 33.507 34.3684 33.507 34.0234 33.2224C33.8217 33.0594 33.6201 32.8963 33.4123 32.7283C33.3147 32.5989 33.2171 32.4695 33.1166 32.3361C34.3123 31.9076 35.4277 31.7876 36.7325 31.6515C36.9851 31.624 37.2378 31.5965 37.498 31.5681C38.3071 31.4802 39.1165 31.394 39.926 31.308C40.9831 31.1949 42.04 31.081 43.0968 30.9661C43.3512 30.9384 43.6057 30.9108 43.8679 30.8823C45.9251 30.6553 47.965 30.3813 50 30.0672C47.5651 28.9038 43.1266 29.1513 40.208 28.9593C39.4416 28.9087 38.6755 28.8569 37.9093 28.805C37.4164 28.7722 36.9235 28.7394 36.4306 28.7068C36.2044 28.6914 35.9782 28.6761 35.7452 28.6602C34.5128 28.5801 33.2987 28.5393 32.0614 28.5546C32.3093 28.3426 32.3093 28.3426 32.5622 28.1262C32.7778 27.94 32.9934 27.7538 33.2155 27.562C33.4297 27.3777 33.644 27.1935 33.8647 27.0036C34.4356 26.4748 34.4356 26.4748 34.9632 25.7185C35.1373 25.7185 35.3114 25.7185 35.4908 25.7185C35.8424 25.4411 36.1738 25.1507 36.4966 24.8558C37.509 23.9485 38.5487 23.0614 39.6127 22.1851C39.7596 22.0637 39.9065 21.9422 40.0579 21.8171C40.839 21.1725 41.6315 20.5365 42.4321 19.9044C42.6661 19.7016 42.9001 19.4988 43.1411 19.2899C43.1411 19.1027 43.1411 18.9155 43.1411 18.7227C42.9463 18.8531 42.7514 18.9835 42.5506 19.1178C41.2535 19.979 39.9562 20.8272 38.574 21.6179C37.1736 22.4244 35.8738 23.3001 34.5702 24.1844C33.2616 25.0671 31.9036 25.8809 30.4785 26.6639C30.4687 26.4419 30.4588 26.22 30.4486 25.9913C30.272 22.4696 29.8989 18.9574 29.5331 15.4437C29.4402 14.551 29.3493 13.6581 29.259 12.7652C29.1889 12.0744 29.1175 11.3836 29.0458 10.6929C29.0118 10.3631 28.9781 10.0332 28.9449 9.70338C28.8988 9.24781 28.8509 8.79234 28.803 8.33687C28.7762 8.07791 28.7495 7.81896 28.7219 7.55216C28.6922 7.36995 28.6625 7.18773 28.6319 7C28.5448 7 28.4578 7 28.3681 7C28.2859 7.54802 28.2222 8.09259 28.1686 8.64222C28.1506 8.81683 28.1325 8.99144 28.1139 9.17135C28.0541 9.7533 27.9962 10.3353 27.9384 10.9174C27.8975 11.3207 27.8564 11.7241 27.8153 12.1274C27.7291 12.9756 27.6439 13.8237 27.5592 14.672C27.4509 15.7571 27.3408 16.8421 27.2301 17.9271C27.1451 18.7615 27.0609 19.5959 26.9769 20.4303C26.9366 20.8302 26.8961 21.23 26.8554 21.6298C26.7984 22.1909 26.7425 22.7521 26.6868 23.3133C26.6699 23.4776 26.6531 23.6419 26.6357 23.8112C26.5424 24.764 26.5061 25.7088 26.5215 26.6639C26.0592 26.3965 25.5977 26.1285 25.1365 25.8603C24.7509 25.6365 24.7509 25.6365 24.3575 25.4083C23.6241 24.9797 23.6241 24.9797 23.0302 24.5279C22.8765 24.4216 22.7228 24.3154 22.5644 24.2059C22.3903 24.2059 22.2162 24.2059 22.0368 24.2059C22.0368 24.0811 22.0368 23.9563 22.0368 23.8277C21.6435 23.5763 21.233 23.3386 20.8167 23.1069C19.2222 22.1965 17.7493 21.2093 16.2764 20.2013C15.5781 19.7552 14.943 19.4157 14.1227 19.1008C14.6004 19.7856 15.0063 20.1706 15.722 20.7198C16.777 21.5446 17.7708 22.3939 18.7527 23.2635C19.4827 23.901 20.2306 24.5264 20.9816 25.1513C22.3267 26.2711 23.6409 27.4066 24.9387 28.5546C24.6824 28.564 24.4262 28.5734 24.1622 28.5831C21.2299 28.6979 18.309 28.8657 15.3851 29.0603C14.6266 29.1105 13.8679 29.1588 13.1092 29.2072C12.6196 29.2394 12.1299 29.2718 11.6403 29.3043C11.3055 29.3253 11.3055 29.3253 10.964 29.3467C9.60207 29.4397 8.31346 29.6019 7 29.8782C7 29.9405 7 30.0029 7 30.0672C7.95901 30.2063 8.91617 30.3325 9.8802 30.4513C10.1765 30.4883 10.4729 30.5254 10.7782 30.5636C11.4095 30.6422 12.041 30.7204 12.6725 30.7981C13.6288 30.9161 14.5844 31.0363 15.5401 31.1566C16.1541 31.2328 16.7681 31.3089 17.3821 31.3848C17.8057 31.4383 17.8057 31.4383 18.2378 31.4929C20.2032 31.7325 22.1576 31.8704 24.1472 31.958C22.7504 33.3596 21.1659 34.6403 19.5855 35.9357C18.88 36.5167 18.1835 37.1033 17.4862 37.6893C16.2123 38.7565 14.9158 39.8071 13.5951 40.8445C13.8563 40.8445 14.1174 40.8445 14.3865 40.8445C15.2274 40.3955 15.2274 40.3955 15.9693 39.8992C15.9693 39.7744 15.9693 39.6496 15.9693 39.521C16.3175 39.3962 16.6658 39.2714 17.0245 39.1429C17.5237 38.8319 18.0117 38.5116 18.4919 38.1857C19.7515 37.3443 21.0428 36.5524 22.3841 35.7794C23.3543 35.2065 24.2793 34.601 25.2035 33.9905C25.6996 33.6506 25.6996 33.6506 26.2577 33.4706C26.3125 33.898 26.3125 33.898 26.2732 34.4494C26.2463 35.6604 26.366 36.8363 26.5369 38.0402C26.5656 38.2518 26.5942 38.4633 26.6238 38.6814C26.7146 39.3513 26.8075 40.0211 26.9007 40.6909C27.0223 41.572 27.143 42.4531 27.2624 43.3343C27.2911 43.546 27.3198 43.7577 27.3494 43.9758C27.5423 45.4261 27.6831 46.8737 27.789 48.3287C27.8522 49.1214 27.9635 49.9008 28.1043 50.6883C28.1478 50.9401 28.1914 51.1918 28.2362 51.4512C28.2797 51.6323 28.3233 51.8134 28.3681 52Z" fill="#9747FF"/>
</svg>
